<?xml version="1.0" standalone="no"?>
<!DOCTYPE svg PUBLIC "-//W3C//DTD SVG 20010904//EN"
 "http://www.w3.org/TR/2001/REC-SVG-20010904/DTD/svg10.dtd">
<svg version="1.0" xmlns="http://www.w3.org/2000/svg"
 width="32.000000pt" height="32.000000pt" viewBox="0 0 32.000000 32.000000"
 preserveAspectRatio="xMidYMid meet">

<g transform="translate(0.000000,32.000000) scale(0.100000,-0.100000)"
fill="#000000" stroke="none">
<path d="M23 279 c4 -13 7 -28 7 -34 0 -5 5 -3 10 5 8 12 18 7 53 -30 23 -25
47 -55 54 -65 11 -18 14 -18 25 -5 16 19 81 15 99 -6 6 -8 15 -29 19 -47 l8
-32 1 31 c1 42 -31 74 -74 74 -28 0 -35 4 -35 19 0 18 -19 32 -43 30 -7 0 -2
-4 11 -9 26 -11 31 -43 5 -33 -30 10 -102 85 -96 99 3 8 1 14 -5 14 -6 0 -18
3 -28 7 -14 5 -16 2 -11 -18z"/>
<path d="M174 139 c-3 -6 7 -25 25 -42 24 -25 33 -29 43 -19 9 9 6 18 -17 42
-31 33 -40 36 -51 19z"/>
<path d="M249 63 c-13 -16 -12 -17 4 -4 9 7 17 15 17 17 0 8 -8 3 -21 -13z"/>
<path d="M280 35 c-10 -12 -10 -15 4 -15 9 0 16 7 16 15 0 8 -2 15 -4 15 -2 0
-9 -7 -16 -15z"/>
</g>
</svg>
