<?xml version="1.0" encoding="UTF-8" standalone="no"?>
<svg
   version="1.0"
   width="40pt"
   height="40pt"
   viewBox="0 0 40 40"
   preserveAspectRatio="xMidYMid"
   id="svg76"
   xmlns="http://www.w3.org/2000/svg"
   xmlns:svg="http://www.w3.org/2000/svg">
  <defs
     id="defs80" />
  <g
     transform="matrix(0.1,0,0,-0.1,0,32)"
     fill="#FFF"
     stroke="none"
     id="g74">
    <path
       d="m 35.91089,268.03571 c 4.921515,-17.23643 8.612651,-37.12463 8.612651,-45.07992 0,-6.6294 6.151894,-3.97765 12.303789,6.6294 9.843029,15.91056 22.14681,9.28117 65.21007,-39.7764 28.29871,-33.147 57.8278,-72.92339 66.44044,-86.18219 13.53418,-23.86585 17.2253,-23.86585 30.75947,-6.629402 19.68607,25.191722 99.66068,19.888202 121.8075,-7.955283 7.38227,-10.60704 18.45568,-38.450518 23.37719,-62.316358 l 9.84304,-42.428159 1.23037,41.102279 c 1.23038,55.686961 -38.14173,98.115113 -91.04802,98.115113 -34.4506,0 -43.06327,5.30352 -43.06327,25.19172 0,23.86584 -23.37719,42.42816 -52.90628,39.7764 -8.61264,0 -2.46075,-5.30351 13.53418,-11.93292 31.98984,-14.58468 38.14174,-57.01284 6.15188,-43.75403 -36.91137,13.25879 -125.498624,112.69979 -118.116356,131.2621 3.69114,10.60705 1.230383,18.56233 -6.151889,18.56233 -7.382266,0 -22.146811,3.97764 -34.450598,9.28116 -17.225302,6.6294 -19.68606,2.65176 -13.534167,-23.86584 z"
       id="path66"
       style="stroke-width:1.27724" />
    <path
       d="m 221.69808,82.412514 c -3.69115,-7.955278 8.61264,-33.146996 30.75947,-55.686957 29.52908,-33.1470009 40.60249,-38.45052 52.90627,-25.1917207 11.07341,11.9329207 7.38228,23.8658407 -20.91643,55.6869607 -38.14174,43.754043 -49.21515,47.731673 -62.74931,25.191717 z"
       id="path68"
       style="stroke-width:1.27724" />
    <path
       d="m 319.43514,-18.68812 c -15.2677,-19.235757 -14.09327,-20.437992 4.69778,-4.808939 10.56996,8.415643 13.8076,14.9157953 13.8076,17.320265 0,9.6178786 -3.23764,6.72443226 -18.50538,-12.511326 z"
       id="path70"
       style="stroke-width:1.18825"
        />
    <path
       d="m 340.30158,-36.546122 c -11.62272,-14.535211 -11.62272,-18.169014 4.64908,-18.169014 10.46044,0 18.59634,8.478872 18.59634,18.169014 0,9.690141 -2.32454,18.169014 -4.64909,18.169014 -2.32453,0 -10.46044,-8.478873 -18.59633,-18.169014 z"
       id="path72"
       style="stroke-width:1.18652" />
  </g>
</svg>
